<svg xmlns="http://www.w3.org/2000/svg" viewBox="0 0 1200 630" width="1200" height="630">
  <defs>
    <!-- Background gradient -->
    <linearGradient id="bgGrad" x1="0%" y1="0%" x2="100%" y2="0%">
      <stop offset="0%" style="stop-color:#08111f;stop-opacity:1" />
      <stop offset="50%" style="stop-color:#050a12;stop-opacity:1" />
      <stop offset="100%" style="stop-color:#050a12;stop-opacity:1" />
    </linearGradient>
    <!-- Accent glow -->
    <radialGradient id="glowRight" cx="80%" cy="50%" r="50%">
      <stop offset="0%" style="stop-color:#1a6cc4;stop-opacity:0.18" />
      <stop offset="100%" style="stop-color:#050a12;stop-opacity:0" />
    </radialGradient>
    <!-- Vignette -->
    <radialGradient id="vignette" cx="50%" cy="50%" r="70%">
      <stop offset="60%" style="stop-color:#000000;stop-opacity:0" />
      <stop offset="100%" style="stop-color:#000000;stop-opacity:0.5" />
    </radialGradient>
    <clipPath id="canvas">
      <rect width="1200" height="630"/>
    </clipPath>
  </defs>

  <!-- Base background -->
  <rect width="1200" height="630" fill="#050a12"/>
  <rect width="1200" height="630" fill="url(#bgGrad)"/>
  <rect width="1200" height="630" fill="url(#glowRight)"/>

  <!-- DNA helix right side -->
  <g clip-path="url(#canvas)" opacity="0.7">
    <!-- Strand dots and connectors - hand-tuned sine wave pattern -->
    <g fill="#4da6ff">
      <!-- Left strand -->
      <circle cx="860" cy="45" r="3" opacity="0.5"/>
      <circle cx="840" cy="53" r="3" opacity="0.55"/>
      <circle cx="822" cy="69" r="3" opacity="0.6"/>
      <circle cx="812" cy="90" r="3.5" opacity="0.65"/>
      <circle cx="814" cy="113" r="3" opacity="0.6"/>
      <circle cx="828" cy="134" r="3" opacity="0.55"/>
      <circle cx="850" cy="149" r="3" opacity="0.5"/>
      <circle cx="874" cy="155" r="3" opacity="0.45"/>
      <circle cx="895" cy="149" r="3" opacity="0.5"/>
      <circle cx="910" cy="134" r="3" opacity="0.55"/>
      <circle cx="916" cy="113" r="3.5" opacity="0.6"/>
      <circle cx="910" cy="90" r="3" opacity="0.55"/>
      <circle cx="895" cy="69" r="3" opacity="0.5"/>
      <circle cx="874" cy="53" r="3" opacity="0.45"/>

      <circle cx="860" cy="165" r="3" opacity="0.5"/>
      <circle cx="840" cy="173" r="3" opacity="0.55"/>
      <circle cx="822" cy="189" r="3" opacity="0.6"/>
      <circle cx="812" cy="210" r="3.5" opacity="0.65"/>
      <circle cx="814" cy="233" r="3" opacity="0.6"/>
      <circle cx="828" cy="254" r="3" opacity="0.55"/>
      <circle cx="850" cy="269" r="3" opacity="0.5"/>
      <circle cx="874" cy="275" r="3" opacity="0.45"/>
      <circle cx="895" cy="269" r="3" opacity="0.5"/>
      <circle cx="910" cy="254" r="3" opacity="0.55"/>
      <circle cx="916" cy="233" r="3.5" opacity="0.6"/>
      <circle cx="910" cy="210" r="3" opacity="0.55"/>
      <circle cx="895" cy="189" r="3" opacity="0.5"/>
      <circle cx="874" cy="173" r="3" opacity="0.45"/>

      <circle cx="860" cy="285" r="3" opacity="0.5"/>
      <circle cx="840" cy="293" r="3" opacity="0.55"/>
      <circle cx="822" cy="309" r="3" opacity="0.6"/>
      <circle cx="812" cy="330" r="3.5" opacity="0.7"/>
      <circle cx="814" cy="353" r="3" opacity="0.6"/>
      <circle cx="828" cy="374" r="3" opacity="0.55"/>
      <circle cx="850" cy="389" r="3" opacity="0.5"/>
      <circle cx="874" cy="395" r="3" opacity="0.45"/>
      <circle cx="895" cy="389" r="3" opacity="0.5"/>
      <circle cx="910" cy="374" r="3" opacity="0.55"/>
      <circle cx="916" cy="353" r="3.5" opacity="0.6"/>
      <circle cx="910" cy="330" r="3" opacity="0.55"/>
      <circle cx="895" cy="309" r="3" opacity="0.5"/>
      <circle cx="874" cy="293" r="3" opacity="0.45"/>

      <circle cx="860" cy="405" r="3" opacity="0.5"/>
      <circle cx="840" cy="413" r="3" opacity="0.55"/>
      <circle cx="822" cy="429" r="3" opacity="0.6"/>
      <circle cx="812" cy="450" r="3.5" opacity="0.65"/>
      <circle cx="814" cy="473" r="3" opacity="0.6"/>
      <circle cx="828" cy="494" r="3" opacity="0.55"/>
      <circle cx="850" cy="509" r="3" opacity="0.5"/>
      <circle cx="874" cy="515" r="3" opacity="0.45"/>
      <circle cx="895" cy="509" r="3" opacity="0.5"/>
      <circle cx="910" cy="494" r="3" opacity="0.55"/>
      <circle cx="916" cy="473" r="3.5" opacity="0.6"/>
      <circle cx="910" cy="450" r="3" opacity="0.55"/>
      <circle cx="895" cy="429" r="3" opacity="0.5"/>
      <circle cx="874" cy="413" r="3" opacity="0.45"/>

      <circle cx="860" cy="525" r="3" opacity="0.5"/>
      <circle cx="840" cy="533" r="3" opacity="0.55"/>
      <circle cx="822" cy="549" r="3" opacity="0.6"/>
      <circle cx="812" cy="570" r="3.5" opacity="0.65"/>
      <circle cx="814" cy="593" r="3" opacity="0.55"/>
      <circle cx="828" cy="610" r="3" opacity="0.5"/>
    </g>

    <!-- Horizontal connectors (base pairs) -->
    <g stroke="#4da6ff" stroke-width="0.8" opacity="0.25">
      <line x1="812" y1="90" x2="916" y2="90"/>
      <line x1="850" y1="149" x2="895" y2="149"/>
      <line x1="812" y1="210" x2="916" y2="210"/>
      <line x1="850" y1="269" x2="895" y2="269"/>
      <line x1="812" y1="330" x2="916" y2="330"/>
      <line x1="850" y1="389" x2="895" y2="389"/>
      <line x1="812" y1="450" x2="916" y2="450"/>
      <line x1="850" y1="509" x2="895" y2="509"/>
      <line x1="812" y1="570" x2="916" y2="570"/>
    </g>

    <!-- Floating particles -->
    <circle cx="970" cy="120" r="2" fill="#4da6ff" opacity="0.3"/>
    <circle cx="1020" cy="200" r="1.5" fill="#4da6ff" opacity="0.25"/>
    <circle cx="990" cy="310" r="2.5" fill="#4da6ff" opacity="0.2"/>
    <circle cx="1060" cy="180" r="1.5" fill="#4da6ff" opacity="0.3"/>
    <circle cx="1100" cy="400" r="2" fill="#4da6ff" opacity="0.2"/>
    <circle cx="1040" cy="500" r="1.5" fill="#4da6ff" opacity="0.25"/>
    <circle cx="1080" cy="80" r="2" fill="#4da6ff" opacity="0.2"/>
    <circle cx="1140" cy="300" r="1.5" fill="#4da6ff" opacity="0.15"/>

    <!-- ATGC chars -->
    <text x="960" y="95" font-family="monospace" font-size="11" fill="#4da6ff" opacity="0.2">A</text>
    <text x="1010" y="230" font-family="monospace" font-size="11" fill="#4da6ff" opacity="0.18">T</text>
    <text x="975" y="370" font-family="monospace" font-size="11" fill="#4da6ff" opacity="0.2">G</text>
    <text x="1050" y="460" font-family="monospace" font-size="11" fill="#4da6ff" opacity="0.18">C</text>
    <text x="1090" y="155" font-family="monospace" font-size="11" fill="#4da6ff" opacity="0.15">T</text>
    <text x="1130" y="340" font-family="monospace" font-size="11" fill="#4da6ff" opacity="0.15">A</text>

    <!-- Floating particles - left side (mirrored) -->
    <circle cx="758" cy="120" r="2" fill="#4da6ff" opacity="0.3"/>
    <circle cx="708" cy="200" r="1.5" fill="#4da6ff" opacity="0.25"/>
    <circle cx="738" cy="310" r="2.5" fill="#4da6ff" opacity="0.2"/>
    <circle cx="668" cy="180" r="1.5" fill="#4da6ff" opacity="0.3"/>
    <circle cx="628" cy="400" r="2" fill="#4da6ff" opacity="0.2"/>
    <circle cx="688" cy="500" r="1.5" fill="#4da6ff" opacity="0.25"/>
    <circle cx="648" cy="80" r="2" fill="#4da6ff" opacity="0.2"/>
    <circle cx="588" cy="300" r="1.5" fill="#4da6ff" opacity="0.15"/>
    <circle cx="720" cy="565" r="1.5" fill="#4da6ff" opacity="0.2"/>
    <circle cx="610" cy="130" r="1.5" fill="#4da6ff" opacity="0.18"/>

    <!-- ATGC chars - left side (mirrored) -->
    <text x="768" y="95" font-family="monospace" font-size="11" fill="#4da6ff" opacity="0.2">A</text>
    <text x="718" y="230" font-family="monospace" font-size="11" fill="#4da6ff" opacity="0.18">T</text>
    <text x="753" y="370" font-family="monospace" font-size="11" fill="#4da6ff" opacity="0.2">G</text>
    <text x="678" y="460" font-family="monospace" font-size="11" fill="#4da6ff" opacity="0.18">C</text>
    <text x="638" y="155" font-family="monospace" font-size="11" fill="#4da6ff" opacity="0.15">T</text>
    <text x="598" y="340" font-family="monospace" font-size="11" fill="#4da6ff" opacity="0.15">A</text>
    <text x="700" y="500" font-family="monospace" font-size="11" fill="#4da6ff" opacity="0.15">G</text>
  </g>

  <!-- Left accent border -->
  <rect x="0" y="0" width="4" height="630" fill="#4da6ff"/>

  <!-- FATIMA -->
  <text x="48" y="180" font-family="'IBM Plex Mono', monospace" font-size="104" font-weight="500"
        fill="#e0eeff" letter-spacing="-1">FATIMA</text>

  <!-- SHOKOR — all white -->
  <text x="48" y="296" font-family="'IBM Plex Mono', monospace" font-size="104" font-weight="500"
        fill="#e0eeff" letter-spacing="-1">SHOKOR</text>

  <!-- Separator line -->
  <rect x="48" y="318" width="390" height="2" fill="#4da6ff" opacity="0.7"/>

  <!-- Title -->
  <text x="48" y="352" font-family="'Lora', Georgia, serif" font-size="20" font-style="italic"
        fill="#b4d2ff" opacity="0.85" letter-spacing="0.3">
    PhD Bioinformatician · Deep Learning · Genomics
  </text>

  <!-- Tag pills -->
  <!-- Python -->
  <rect x="48" y="402" width="68" height="26" rx="4" fill="#4da6ff" fill-opacity="0.09" stroke="#4da6ff" stroke-opacity="0.35" stroke-width="1"/>
  <text x="82" y="420" font-family="'IBM Plex Mono', monospace" font-size="12" fill="#4da6ff" opacity="0.85" text-anchor="middle">Python</text>

  <!-- PyTorch -->
  <rect x="126" y="402" width="68" height="26" rx="4" fill="#4da6ff" fill-opacity="0.09" stroke="#4da6ff" stroke-opacity="0.35" stroke-width="1"/>
  <text x="160" y="420" font-family="'IBM Plex Mono', monospace" font-size="12" fill="#4da6ff" opacity="0.85" text-anchor="middle">PyTorch</text>

  <!-- Genomics -->
  <rect x="204" y="402" width="80" height="26" rx="4" fill="#4da6ff" fill-opacity="0.09" stroke="#4da6ff" stroke-opacity="0.35" stroke-width="1"/>
  <text x="244" y="420" font-family="'IBM Plex Mono', monospace" font-size="12" fill="#4da6ff" opacity="0.85" text-anchor="middle">Genomics</text>

  <!-- Single-cell -->
  <rect x="294" y="402" width="88" height="26" rx="4" fill="#4da6ff" fill-opacity="0.09" stroke="#4da6ff" stroke-opacity="0.35" stroke-width="1"/>
  <text x="338" y="420" font-family="'IBM Plex Mono', monospace" font-size="12" fill="#4da6ff" opacity="0.85" text-anchor="middle">Single-cell</text>

  <!-- Multiomics -->
  <rect x="392" y="402" width="104" height="26" rx="4" fill="#4da6ff" fill-opacity="0.09" stroke="#4da6ff" stroke-opacity="0.35" stroke-width="1"/>
  <text x="444" y="420" font-family="'IBM Plex Mono', monospace" font-size="12" fill="#4da6ff" opacity="0.85" text-anchor="middle">Multiomics</text>

  <!-- Open to work badge -->
  <rect x="1032" y="570" width="136" height="28" rx="4" fill="#4da6ff" fill-opacity="0.08" stroke="#4da6ff" stroke-opacity="0.4" stroke-width="1"/>
  <circle cx="1050" cy="584" r="4" fill="#50dc64" opacity="0.9"/>
  <text x="1062" y="589" font-family="'IBM Plex Mono', monospace" font-size="12" fill="#b4d2ff" opacity="0.75">Open to work</text>

  <!-- Vignette -->
  <rect width="1200" height="630" fill="url(#vignette)"/>
</svg>
